<?xml version="1.0" encoding="iso-8859-1"?>
<!-- Generator: Adobe Illustrator 19.0.0, SVG Export Plug-In . SVG Version: 6.00 Build 0)  -->
<svg xmlns="http://www.w3.org/2000/svg" xmlns:xlink="http://www.w3.org/1999/xlink" version="1.1" id="Capa_1" x="0px" y="0px" viewBox="0 0 512 512" style="enable-background:new 0 0 512 512;" xml:space="preserve" width="512px" height="512px">
<g>
	<g>
		<path d="M320.45,29.064c-3.906-3.904-10.236-3.904-14.143,0l-57.174,57.174c-3.904,3.905-3.904,10.237,0.001,14.143    c1.953,1.952,4.512,2.929,7.071,2.929s5.118-0.977,7.071-2.929l57.174-57.174C324.355,39.302,324.355,32.97,320.45,29.064z" fill="#FFFFFF"/>
	</g>
</g>
<g>
	<g>
		<path d="M409.614,2.936c-3.906-3.904-10.236-3.904-14.143,0L209.646,188.763c-3.906,3.905-3.906,10.237,0,14.142    c1.953,1.952,4.512,2.929,7.071,2.929c2.559,0,5.118-0.977,7.071-2.929L409.614,17.079    C413.519,13.174,413.519,6.842,409.614,2.936z" fill="#FFFFFF"/>
	</g>
</g>
<g>
	<g>
		<path d="M509.071,2.928c-3.906-3.904-10.236-3.904-14.143,0L373.241,124.616c-3.905,3.905-3.905,10.237,0,14.143    c1.953,1.952,4.512,2.929,7.071,2.929s5.118-0.977,7.071-2.929L509.071,17.071C512.976,13.166,512.976,6.834,509.071,2.928z" fill="#FFFFFF"/>
	</g>
</g>
<g>
	<g>
		<path d="M360.149,151.85c-1.859-1.859-4.439-2.93-7.069-2.93s-5.21,1.07-7.07,2.93s-2.93,4.431-2.93,7.07    c0,2.63,1.069,5.21,2.93,7.07c1.86,1.859,4.44,2.93,7.07,2.93s5.21-1.071,7.069-2.93c1.86-1.86,2.931-4.44,2.931-7.07    C363.08,156.28,362.01,153.71,360.149,151.85z" fill="#FFFFFF"/>
	</g>
</g>
<g>
	<g>
		<path d="M508.91,221.26c-1.87-1.861-4.44-2.92-7.07-2.92s-5.21,1.06-7.07,2.92c-1.87,1.87-2.93,4.44-2.93,7.07    c0,2.64,1.06,5.21,2.93,7.08c1.86,1.859,4.431,2.93,7.07,2.93c2.63,0,5.21-1.07,7.07-2.93c1.859-1.87,2.92-4.44,2.92-7.08    C511.83,225.7,510.769,223.13,508.91,221.26z" fill="#FFFFFF"/>
	</g>
</g>
<g>
	<g>
		<path d="M484.657,245.515c-3.906-3.905-10.236-3.905-14.142,0L266.286,449.744c-56.25,56.251-147.778,56.252-204.03-0.001    c-56.251-56.251-56.251-147.778,0-204.029L290.651,17.318c3.905-3.905,3.905-10.237,0-14.143c-3.906-3.904-10.236-3.904-14.143,0    L48.113,231.571C17.087,262.598,0,303.85,0,347.728c0,43.879,17.088,85.131,48.114,116.158    C79.141,494.913,120.393,512,164.271,512s85.131-17.087,116.157-48.113l204.229-204.229    C488.562,255.753,488.562,249.421,484.657,245.515z" fill="#FFFFFF"/>
	</g>
</g>
<g>
	<g>
		<path d="M164.267,223.733c-68.374,0-124,55.626-124,124s55.626,124,124,124s124-55.626,124-124S232.641,223.733,164.267,223.733z     M154.249,451.249c-17.106-1.643-33.014-7.447-46.699-16.385c1.131-13.052,12.109-23.33,25.45-23.33    c14.09,0,25.553,11.463,25.553,25.553C158.553,442.145,157.029,447.076,154.249,451.249z M176.359,451.026    c1.439-4.476,2.194-9.178,2.194-13.94c0-25.118-20.435-45.553-45.553-45.553c-19.418,0-36.027,12.217-42.57,29.365    c-18.635-18.804-30.163-44.662-30.163-73.165c0-30.168,12.916-57.372,33.503-76.386c9.035,0.808,16.144,8.411,16.144,17.653    c0,9.778-7.955,17.733-17.733,17.733c-5.522,0-10,4.478-10,10c0,5.522,4.478,10,10,10c20.807,0,37.733-16.927,37.733-37.733    c0-13.213-6.832-24.854-17.143-31.596c15.192-8.695,32.774-13.67,51.497-13.67c57.344-0.001,103.999,46.654,103.999,103.999    C268.267,400.988,228.028,445.015,176.359,451.026z" fill="#FFFFFF"/>
	</g>
</g>
<g>
	<g>
		<path d="M204.104,290c-21.077,0-38.223,17.147-38.223,38.224c0,21.077,17.147,38.223,38.223,38.223s38.224-17.147,38.224-38.224    C242.328,307.146,225.181,290,204.104,290z M204.104,346.448c-10.048,0-18.223-8.175-18.223-18.224S194.057,310,204.104,310    c10.049,0,18.224,8.175,18.224,18.224S214.153,346.448,204.104,346.448z" fill="#FFFFFF"/>
	</g>
</g>
<g>
	<g>
		<path d="M211.17,394.46c-1.86-1.861-4.43-2.93-7.061-2.93c-2.64,0-5.22,1.069-7.08,2.93c-1.859,1.859-2.92,4.439-2.92,7.07    c0,2.63,1.061,5.21,2.92,7.069c1.87,1.87,4.45,2.931,7.08,2.931c2.62,0,5.2-1.061,7.061-2.931c1.87-1.859,2.93-4.439,2.93-7.069    C214.1,398.899,213.03,396.319,211.17,394.46z" fill="#FFFFFF"/>
	</g>
</g>
<g>
	<g>
		<path d="M122.15,360c-1.86-1.86-4.43-2.931-7.06-2.931c-2.64,0-5.21,1.07-7.08,2.931c-1.86,1.859-2.93,4.439-2.93,7.069    c0,2.631,1.069,5.211,2.93,7.07c1.87,1.87,4.44,2.93,7.08,2.93c2.63,0,5.2-1.06,7.06-2.93c1.87-1.859,2.94-4.43,2.94-7.07    C125.09,364.439,124.02,361.859,122.15,360z" fill="#FFFFFF"/>
	</g>
</g>
<g>
	<g>
		<path d="M404.03,201.887c-3.906-3.904-10.236-3.904-14.143,0l-71,71c-3.905,3.906-3.905,10.238,0.001,14.143    c1.953,1.952,4.512,2.929,7.071,2.929s5.118-0.977,7.071-2.929l71-71C407.935,212.125,407.935,205.793,404.03,201.887z" fill="#FFFFFF"/>
	</g>
</g>
<g>
	<g>
		<path d="M508.139,97.779c-3.905-3.903-10.235-3.904-14.142,0l-64.359,64.358c-3.905,3.905-3.905,10.237,0,14.143    c1.953,1.952,4.512,2.929,7.071,2.929c2.559,0,5.118-0.977,7.071-2.929l64.359-64.358    C512.044,108.017,512.044,101.685,508.139,97.779z" fill="#FFFFFF"/>
	</g>
</g>
<g>
</g>
<g>
</g>
<g>
</g>
<g>
</g>
<g>
</g>
<g>
</g>
<g>
</g>
<g>
</g>
<g>
</g>
<g>
</g>
<g>
</g>
<g>
</g>
<g>
</g>
<g>
</g>
<g>
</g>
</svg>
